<svg width="600" height="400" viewBox="0 0 600 400" fill="none" xmlns="http://www.w3.org/2000/svg">
  <rect width="600" height="400" rx="20" fill="#1a1a2e"/>
  <circle cx="300" cy="200" r="150" fill="url(#paint0_radial)"/>
  <path d="M300 100C350 100 390 140 390 190C390 240 350 280 300 280C250 280 210 240 210 190C210 140 250 100 300 100Z" fill="url(#paint1_linear)"/>
  <circle cx="300" cy="160" r="40" fill="#00BFFF"/>
  <path d="M240 230C240 207.909 257.909 190 280 190H320C342.091 190 360 207.909 360 230V280H240V230Z" fill="#00BFFF"/>
  
  <defs>
    <radialGradient id="paint0_radial" cx="0" cy="0" r="1" gradientUnits="userSpaceOnUse" gradientTransform="translate(300 200) rotate(90) scale(150)">
      <stop stop-color="#00BFFF" stop-opacity="0.2"/>
      <stop offset="1" stop-color="#1a1a2e" stop-opacity="0"/>
    </radialGradient>
    <linearGradient id="paint1_linear" x1="300" y1="100" x2="300" y2="280" gradientUnits="userSpaceOnUse">
      <stop stop-color="#00BFFF"/>
      <stop offset="1" stop-color="#0066FF"/>
    </linearGradient>
  </defs>
</svg> 