<svg width="600" height="500" viewBox="0 0 600 500" fill="none" xmlns="http://www.w3.org/2000/svg">
  <!-- Background Elements -->
  <circle cx="300" cy="250" r="200" fill="#f0f7ff"/>
  <circle cx="300" cy="250" r="150" fill="#e1eeff"/>
  
  <!-- Student Figure -->
  <circle cx="300" cy="180" r="40" fill="#1A1A2E"/> <!-- Head -->
  <rect x="270" y="220" width="60" height="100" rx="20" fill="#1A1A2E"/> <!-- Body -->
  
  <!-- Desk -->
  <rect x="150" y="300" width="300" height="20" rx="5" fill="#1A1A2E"/>
  <rect x="170" y="320" width="20" height="100" fill="#1A1A2E"/>
  <rect x="410" y="320" width="20" height="100" fill="#1A1A2E"/>
  
  <!-- Book -->
  <rect x="250" y="270" width="100" height="15" rx="2" fill="#00BFFF"/>
  
  <!-- Music Notes -->
  <path d="M450 150 Q470 130 450 110" stroke="#00BFFF" stroke-width="3"/>
  <circle cx="445" cy="150" r="5" fill="#00BFFF"/>
  
  <path d="M480 180 Q500 160 480 140" stroke="#00BFFF" stroke-width="3"/>
  <circle cx="475" cy="180" r="5" fill="#00BFFF"/>
  
  <!-- Decorative Elements -->
  <circle cx="150" cy="150" r="10" fill="#00BFFF" opacity="0.5"/>
  <circle cx="450" cy="350" r="15" fill="#00BFFF" opacity="0.5"/>
  <circle cx="200" cy="400" r="8" fill="#00BFFF" opacity="0.5"/>
</svg> 